<svg xmlns="http://www.w3.org/2000/svg">
	<symbol id="exclamation" viewBox="0 0 1024 1024">
		<path d="M512 1004.8C240.2816 1004.8 19.2 783.7184 19.2 512S240.2816 19.2 512 19.2 1004.8 240.2816 1004.8 512 783.7184 1004.8 512 1004.8zM512 83.2C275.5584 83.2 83.2 275.5584 83.2 512c0 236.4416 192.3584 428.8 428.8 428.8 236.4416 0 428.8-192.3584 428.8-428.8C940.8 275.5584 748.4416 83.2 512 83.2zM518.4 659.9936c-17.664 0-32-14.336-32-32L486.4 217.6c0-17.664 14.336-32 32-32S550.4 199.936 550.4 217.6l0 410.3936C550.4 645.6832 536.064 659.9936 518.4 659.9936zM518.4 748.8m-32 0a1.25 1.25 0 1 0 64 0 1.25 1.25 0 1 0-64 0Z" />
	</symbol>
	<symbol id="text" viewBox="0 0 24 24">
		<path d="M16 9v8h-2V9h-4V7h10v2h-4zM8 5v12H6V5H0V3h15v2H8z"/>
	</symbol>
	<symbol id="image" viewBox="0 0 64 64">
		<g>
			<g id="Icon-Image" transform="translate(278.000000, 232.000000)">
				<path class="st0" d="M-226.2-181.6h-39.5c-2.3,0-4.2-1.9-4.2-4.2v-28.2c0-2.3,1.9-4.2,4.2-4.2h39.5     c2.3,0,4.2,1.9,4.2,4.2v28.2C-222-183.5-223.9-181.6-226.2-181.6L-226.2-181.6z M-265.8-215.5c-0.8,0-1.4,0.6-1.4,1.4v28.2     c0,0.8,0.6,1.4,1.4,1.4h39.5c0.8,0,1.4-0.6,1.4-1.4v-28.2c0-0.8-0.6-1.4-1.4-1.4H-265.8L-265.8-215.5z" id="Fill-12"/>
				<path class="st0" d="M-238.9-201.5c-3.1,0-5.5-2.5-5.5-5.5s2.5-5.5,5.5-5.5s5.5,2.5,5.5,5.5     S-235.9-201.5-238.9-201.5L-238.9-201.5z M-238.9-210c-1.6,0-2.9,1.3-2.9,2.9c0,1.6,1.3,2.9,2.9,2.9c1.6,0,2.9-1.3,2.9-2.9     C-236-208.7-237.3-210-238.9-210L-238.9-210z" id="Fill-13"/>
				<polyline class="st0" id="Fill-14" points="-231.4,-182.1 -254.5,-203.8 -267.7,-191.6 -269.5,-193.5 -254.5,-207.4 -229.6,-184      -231.4,-182.1    "/>
				<polyline class="st0" id="Fill-15" points="-224.2,-189.3 -231.9,-195.5 -238.3,-190.2 -240,-192.3 -231.9,-198.9 -222.6,-191.3      -224.2,-189.3    "/>
			</g>
		</g>
	</symbol>
</svg>